PathFileType	4	(X/Y/Z)	./resultDataOpenSim/trcMotMarkerGrf/sub09/qtm-15-06.trc
DataRate	CameraRate	NumFrames	NumMarkers	Units	OrigDataRate	OrigDataStartFrame	OrigNumFrames
250.000000	250.000000	6	24	m	250.000000	377	502
Frame#	Time	L.Toe.Tip			R.Toe.Tip			L.Ankle.Lat			R.Ankle.Lat			L.Ankle.Med			R.Ankle.Med			L.Heel			R.Heel			L.Knee.Lat			R.Knee.Lat			L.Knee.Med			R.Knee.Med			L.Thigh.Upper			R.Thigh.Upper			L.ASIS			R.ASIS			V.Sacral			L.Acromium			R.Acromium			C7			L.Elbow			R.Elbow			L.Wrist.Lat			R.Wrist.Lat
		X1	Y1	Z1	X2	Y2	Z2	X3	Y3	Z3	X4	Y4	Z4	X5	Y5	Z5	X6	Y6	Z6	X7	Y7	Z7	X8	Y8	Z8	X9	Y9	Z9	X10	Y10	Z10	X11	Y11	Z11	X12	Y12	Z12	X13	Y13	Z13	X14	Y14	Z14	X15	Y15	Z15	X16	Y16	Z16	X17	Y17	Z17	X18	Y18	Z18	X19	Y19	Z19	X20	Y20	Z20	X21	Y21	Z21	X22	Y22	Z22	X23	Y23	Z23	X24	Y24	Z24

377	1.504	1.0540195	0.099354542	-0.086623972	1.0016822	0.038701537	0.048299974	0.9430302	0.20397154	-0.1189834	0.85821468	0.068793506	0.082911187	0.97016544	0.20189714	-0.023720188	0.87243297	0.10793962	-0.008159287	0.86169353	0.20001796	-0.074375028	0.78617705	0.058823498	0.033451949	1.1785798	0.53860962	-0.13010203	1.019502	0.49634211	0.14710783	1.1844743	0.53016609	-0.0047752727	1.0005368	0.48869876	0.022388384	0.96031766	0.89003449	-0.1575649	0.9597272	0.90270846	0.21391943	1.028371	0.98035162	-0.10051847	1.0435742	0.98796886	0.13541371	0.87010625	1.0376363	0.022292072	1.0285969	1.4231453	-0.17141991	1.0255746	1.4531163	0.1584732	0.95747951	1.4879504	-0.0078103828	0.89404844	1.0722664	-0.19976591	0.87130027	1.1203526	0.27559895	1.0574959	0.86251486	-0.23200191	1.091178	0.94610198	0.27149794
378	1.508	1.0725595	0.098048155	-0.087638252	1.0019788	0.038824907	0.048491156	0.95861348	0.19916001	-0.11997787	0.85851997	0.069518738	0.083010331	0.98617716	0.19777675	-0.024898752	0.87274907	0.10858842	-0.0080551801	0.87713791	0.19283492	-0.075438226	0.7862784	0.059965731	0.033332643	1.1850907	0.54041668	-0.1304654	1.020975	0.49667717	0.14730774	1.1911171	0.53191395	-0.0052654138	1.0022305	0.48906881	0.022426935	0.96658125	0.8912011	-0.15763497	0.96503242	0.90381799	0.2132078	1.0338547	0.98152158	-0.10084644	1.0484863	0.9889336	0.13516824	0.87467482	1.0384996	0.021874094	1.0331041	1.4242915	-0.1716738	1.0303223	1.4540824	0.1582153	0.96210502	1.4889281	-0.0079854147	0.89852589	1.0739075	-0.19991197	0.876913	1.1206656	0.27528235	1.0598601	0.86284465	-0.23355368	1.0983198	0.9483084	0.26958627
379	1.512	1.0911939	0.096784706	-0.088594575	1.0021677	0.038880388	0.048605093	0.97429283	0.19429887	-0.12089501	0.85882294	0.070228699	0.083091765	1.0022269	0.19367861	-0.02604212	0.87309741	0.10921138	-0.0078770713	0.89287706	0.18557338	-0.076437363	0.78645968	0.061065094	0.033330155	1.1913677	0.54207091	-0.13087966	1.0224311	0.49695025	0.14745594	1.1975391	0.53347004	-0.0057921558	1.0039169	0.4894654	0.022449418	0.97237512	0.89228332	-0.15800405	0.96997664	0.90477951	0.21273002	1.0395306	0.98261477	-0.10122222	1.0534108	0.98984708	0.13492674	0.87934114	1.0393263	0.021415387	1.0376272	1.4253795	-0.17192139	1.035061	1.4549906	0.15797119	0.96674823	1.4898445	-0.0081408614	0.90295662	1.0753722	-0.20020312	0.88255289	1.1209369	0.27498823	1.0622666	0.86313698	-0.23509015	1.10544	0.95044023	0.26770088
380	1.516	1.1099007	0.095581745	-0.089508066	1.00215	0.038864962	0.048582826	0.99009714	0.18939816	-0.12176682	0.85912729	0.070922395	0.083154341	1.0183556	0.18961457	-0.027153913	0.8736182	0.10983527	-0.0075723955	0.90908547	0.1781487	-0.077305922	0.78669513	0.06210702	0.033378344	1.1975939	0.54353309	-0.13132099	1.0238553	0.49720353	0.14754089	1.2037901	0.53483092	-0.006348183	1.0055827	0.48987798	0.022486642	0.97757271	0.89326955	-0.15872677	0.97460819	0.90560504	0.21246241	1.0453264	0.98363817	-0.10162988	1.0583417	0.99070453	0.1346876	0.88414902	1.0400952	0.020898923	1.0421713	1.4264067	-0.17216797	1.03983	1.4558646	0.15773221	0.97141011	1.4907018	-0.0082678749	0.90736589	1.0766856	-0.20058356	0.8882167	1.1211666	0.27471161	1.0647222	0.86338844	-0.23661665	1.1125572	0.95248627	0.26585399
381	1.52	1.1286403	0.09446503	-0.090400439	1.0020219	0.038820533	0.048487249	1.0060582	0.18446302	-0.12262686	0.85942662	0.071603155	0.083198558	1.0345914	0.18556759	-0.028209907	0.87431537	0.11045918	-0.0071775543	0.92579414	0.17054682	-0.07797858	0.78694941	0.063105359	0.033417278	1.2038561	0.54478454	-0.13177864	1.025196	0.49747732	0.14757285	1.2099299	0.53599346	-0.0069215958	1.0072369	0.49029495	0.022542281	0.98243833	0.89417151	-0.15960724	0.9790843	0.90634624	0.21225566	1.0510516	0.98459404	-0.10200151	1.0632677	0.99149985	0.1344507	0.88908533	1.0407583	0.020322272	1.0467386	1.4273689	-0.17241609	1.044641	1.4567271	0.15749415	0.97607553	1.4914925	-0.0083877698	0.91178884	1.0778968	-0.20098797	0.89389299	1.1213522	0.27444117	1.067221	0.86360004	-0.23814086	1.1196536	0.95444414	0.26403134
382	1.524	1.1473848	0.093460089	-0.091286863	1.0019419	0.038797922	0.048418739	1.0221735	0.17950884	-0.12346621	0.85970809	0.072271724	0.083223236	1.0508479	0.1815066	-0.029162962	0.87503729	0.11106248	-0.00681804	0.94273858	0.16294108	-0.078581433	0.78720376	0.064074869	0.033424485	1.2100995	0.54583177	-0.13225078	1.0264761	0.4977428	0.14757114	1.2159516	0.53695519	-0.007508	1.0089373	0.49067248	0.022593379	0.98728029	0.89501497	-0.160461	0.98352229	0.90704265	0.2119961	1.0565866	0.98548156	-0.1022922	1.0681821	0.99223044	0.13421721	0.8941016	1.0412771	0.019693936	1.051327	1.4282633	-0.17266413	1.0494758	1.4575648	0.15725236	0.98072699	1.4922136	-0.00853011	0.91623826	1.0790375	-0.20139539	0.89956597	1.1214899	0.27416719	1.0697542	0.86377626	-0.2396625	1.1266791	0.95631134	0.262216
